<?xml version="1.0" encoding="UTF-8"?>
<svg id="Layer_2" data-name="Layer 2" xmlns="http://www.w3.org/2000/svg" viewBox="0 0 380 100.31">
  <defs>
    <style>
      .cls-1 {
        fill: #fff;
        stroke-width: 0px;
      }
    </style>
  </defs>
  <g id="Layer_1-2" data-name="Layer 1">
    <g>
      <g>
        <polygon class="cls-1" points="0 67.72 33.86 67.72 67.72 33.86 67.72 0 0 67.72"/>
        <polygon class="cls-1" points="123.77 11.67 89.91 11.67 67.72 33.86 67.72 67.72 123.77 11.67"/>
        <polygon class="cls-1" points="102.81 67.72 123.77 46.77 102.81 46.77 102.81 67.72"/>
      </g>
      <g>
        <path class="cls-1" d="M197.47,34.31c-1.18-2.06-2.75-3.6-4.71-4.62-1.97-1.02-4.15-1.53-6.55-1.53-2.99,0-5.29.55-6.91,1.65-1.63,1.1-2.88,2.49-3.78,4.16h-1.41c-.9-1.72-2.18-3.13-3.85-4.2-1.67-1.07-3.89-1.61-6.67-1.61-2.56,0-4.63.48-6.2,1.45-1.57.96-2.7,2.1-3.37,3.41h-1.42v-4.24h-9.73v38.94h9.88v-23.01c0-2.67.62-4.72,1.85-6.16,1.22-1.45,2.97-2.17,5.22-2.17,1.98,0,3.53.54,4.63,1.61,1.1,1.08,1.65,2.69,1.65,4.84v24.88h9.88v-23.01c0-2.67.62-4.72,1.85-6.16,1.22-1.45,2.97-2.17,5.22-2.17,1.98,0,3.53.54,4.62,1.61,1.1,1.08,1.66,2.69,1.66,4.84v24.88h9.88v-25.6c0-3.14-.59-5.74-1.76-7.81Z"/>
        <path class="cls-1" d="M207.67,28.78v38.94h9.88V28.78h-9.88ZM217.16,13.4c-1.2-1.15-2.72-1.72-4.55-1.72s-3.29.58-4.52,1.72c-1.22,1.15-1.84,2.67-1.84,4.56s.62,3.4,1.84,4.55c1.23,1.16,2.74,1.72,4.52,1.72s3.34-.57,4.55-1.72c1.2-1.15,1.81-2.67,1.81-4.55s-.61-3.41-1.81-4.56Z"/>
        <path class="cls-1" d="M244.98,28.63c-1.77,0-3.33.37-4.66,1.1-1.34.73-2.29,1.88-2.87,3.45h-1.42v-4.39h-9.73v38.94h9.89v-22.14c0-2.77.81-4.83,2.43-6.17,1.63-1.33,3.69-2,6.2-2h4.87v-8.79h-4.71Z"/>
        <path class="cls-1" d="M289.21,59.55c-1.46,0-2.2-.78-2.2-2.35v-14.53c0-4.87-1.49-8.58-4.47-11.15-2.99-2.56-7.04-3.84-12.17-3.84-3.35,0-6.19.51-8.52,1.53-2.33,1.02-4.19,2.35-5.58,4-1.39,1.66-2.39,3.47-3.03,5.46l9.11,3.06c.37-1.78,1.15-3.24,2.35-4.36,1.2-1.12,3.03-1.69,5.49-1.69s4.34.59,5.5,1.76c1.15,1.18,1.72,2.69,1.72,4.52v2.2h-10.67c-2.93,0-5.53.46-7.81,1.38-2.27.92-4.06,2.27-5.34,4.08-1.28,1.81-1.92,4.05-1.92,6.71s.64,4.93,1.92,6.79,3.03,3.28,5.22,4.24c2.2.96,4.68,1.45,7.46,1.45s4.87-.4,6.44-1.18c1.57-.78,2.73-1.69,3.46-2.71.73-1.02,1.2-1.84,1.41-2.47h1.49v.08c0,1.57.64,2.82,1.89,3.77,1.25.94,2.85,1.42,4.79,1.42h6.59v-8.17h-3.14ZM277.44,52.34c0,2.56-.88,4.61-2.63,6.16-1.75,1.55-4.02,2.32-6.79,2.32-2.09,0-3.69-.44-4.79-1.34-1.1-.89-1.65-2.04-1.65-3.45s.52-2.51,1.57-3.3c1.05-.78,2.49-1.18,4.32-1.18h9.97v.79Z"/>
        <path class="cls-1" d="M325.9,28.78v4.71h-1.41c-.84-1.36-2.18-2.67-4.01-3.92-1.83-1.26-4.53-1.89-8.08-1.89-3.2,0-6.14.77-8.83,2.31-2.7,1.55-4.86,3.77-6.47,6.68-1.63,2.9-2.44,6.4-2.44,10.48v1.25c0,4.08.81,7.57,2.44,10.48,1.62,2.9,3.78,5.13,6.47,6.68,2.7,1.54,5.64,2.31,8.83,2.31,2.4,0,4.39-.29,5.96-.87,1.57-.57,2.82-1.29,3.77-2.16.94-.86,1.68-1.71,2.2-2.55h1.42v10.13c0,1.56-.73,2.35-2.2,2.35h-22.61v8.63h26.06c2.62,0,4.71-.8,6.28-2.39,1.57-1.6,2.36-3.73,2.36-6.4V28.78h-9.74ZM325.9,48.17c0,3.51-1.02,6.22-3.06,8.16-2.03,1.94-4.58,2.91-7.61,2.91s-5.58-.97-7.61-2.91c-2.04-1.94-3.06-4.65-3.06-8.16v-.79c0-3.55,1.02-6.29,3.06-8.2,2.03-1.92,4.58-2.87,7.61-2.87s5.64.95,7.65,2.87c2.02,1.91,3.02,4.64,3.02,8.2v.79Z"/>
        <path class="cls-1" d="M380,47.78c0-3.98-.78-7.47-2.35-10.48-1.57-3.01-3.77-5.37-6.59-7.06-2.83-1.71-6.16-2.55-9.97-2.55s-7.27.83-10.21,2.48c-2.93,1.65-5.2,3.97-6.83,6.98-1.62,3.01-2.43,6.55-2.43,10.64v.94c0,4.08.82,7.63,2.48,10.64,1.65,3.01,3.95,5.34,6.91,6.98,2.95,1.65,6.37,2.48,10.24,2.48,3.55,0,6.49-.57,8.8-1.7,2.3-1.12,4.14-2.48,5.53-4.08,1.39-1.6,2.45-3.07,3.18-4.44l-8.08-4.24c-.68,1.47-1.68,2.8-2.99,4.01-1.31,1.2-3.35,1.8-6.12,1.8s-5.03-.83-6.91-2.5c-1.89-1.68-2.88-3.85-2.99-6.52h28.33v-3.37ZM351.74,43.77c.37-2.24,1.34-4.06,2.91-5.41,1.57-1.36,3.68-2.04,6.36-2.04s4.64.68,6.23,2.04c1.6,1.36,2.5,3.17,2.71,5.41h-18.21Z"/>
      </g>
      <g>
        <path class="cls-1" d="M145.4,74.79v25.27h-2.53v-25.27h2.53Z"/>
        <path class="cls-1" d="M170.21,100.06h-2.53l-13.99-21.26v21.26h-2.53v-25.27h2.53l13.99,21.22v-21.22h2.53v25.27Z"/>
        <path class="cls-1" d="M179.23,99.44c-1.26-.58-2.26-1.38-2.98-2.42-.72-1.04-1.11-2.19-1.16-3.47h2.67c.12,1.23.66,2.31,1.63,3.24.96.93,2.37,1.39,4.23,1.39,1.71,0,3.07-.44,4.07-1.32s1.5-2,1.5-3.35c0-1.08-.28-1.96-.83-2.62-.55-.66-1.24-1.16-2.06-1.48-.82-.33-1.95-.68-3.4-1.07-1.69-.46-3.02-.9-4.01-1.34-.99-.43-1.83-1.11-2.53-2.02s-1.05-2.16-1.05-3.73c0-1.3.34-2.46,1.01-3.49.67-1.02,1.63-1.83,2.86-2.4s2.64-.87,4.23-.87c2.34,0,4.22.57,5.66,1.72s2.26,2.62,2.48,4.43h-2.75c-.17-1.04-.73-1.96-1.7-2.77-.96-.81-2.27-1.21-3.9-1.21-1.52,0-2.79.4-3.8,1.21-1.01.81-1.52,1.91-1.52,3.31,0,1.06.28,1.92.83,2.57s1.25,1.15,2.08,1.48,1.96.7,3.38,1.08c1.64.46,2.96.91,3.98,1.36,1.01.45,1.87,1.13,2.57,2.04s1.05,2.15,1.05,3.69c0,1.18-.32,2.3-.94,3.36-.63,1.06-1.56,1.92-2.79,2.57s-2.7.98-4.41.98-3.13-.29-4.39-.87Z"/>
        <path class="cls-1" d="M199.17,74.79v25.27h-2.53v-25.27h2.53Z"/>
        <path class="cls-1" d="M224.81,82.16c-.72-1.66-1.83-2.97-3.31-3.92-1.48-.95-3.22-1.43-5.23-1.43-1.88,0-3.57.43-5.06,1.3-1.5.87-2.68,2.1-3.54,3.71-.87,1.6-1.3,3.47-1.3,5.59s.43,3.99,1.3,5.6,2.05,2.86,3.54,3.73c1.49.87,3.18,1.3,5.06,1.3,1.76,0,3.35-.38,4.76-1.14s2.54-1.84,3.4-3.25c.85-1.41,1.34-3.06,1.46-4.94h-10.63v-2.06h13.31v1.84c-.12,2.22-.72,4.22-1.81,6.02-1.09,1.8-2.54,3.21-4.36,4.25-1.82,1.04-3.86,1.56-6.13,1.56s-4.46-.55-6.36-1.65c-1.9-1.1-3.41-2.63-4.5-4.59-1.1-1.96-1.65-4.19-1.65-6.67s.55-4.71,1.65-6.67,2.6-3.5,4.5-4.59c1.9-1.1,4.03-1.64,6.36-1.64,2.7,0,5.06.67,7.09,2.02,2.02,1.35,3.49,3.23,4.41,5.64h-2.96Z"/>
        <path class="cls-1" d="M251.96,74.79v25.27h-2.53v-11.82h-13.7v11.82h-2.53v-25.27h2.53v11.35h13.7v-11.35h2.53Z"/>
        <path class="cls-1" d="M272.54,74.79v2.1h-7.02v23.18h-2.53v-23.18h-7.05v-2.1h16.6Z"/>
        <path class="cls-1" d="M279.82,99.44c-1.26-.58-2.26-1.38-2.98-2.42-.72-1.04-1.11-2.19-1.16-3.47h2.67c.12,1.23.66,2.31,1.63,3.24.96.93,2.37,1.39,4.23,1.39,1.71,0,3.07-.44,4.07-1.32s1.5-2,1.5-3.35c0-1.08-.28-1.96-.83-2.62-.55-.66-1.24-1.16-2.06-1.48-.82-.33-1.95-.68-3.4-1.07-1.69-.46-3.02-.9-4.01-1.34-.99-.43-1.83-1.11-2.53-2.02s-1.05-2.16-1.05-3.73c0-1.3.34-2.46,1.01-3.49.67-1.02,1.63-1.83,2.86-2.4s2.64-.87,4.23-.87c2.34,0,4.22.57,5.66,1.72s2.26,2.62,2.48,4.43h-2.75c-.17-1.04-.73-1.96-1.7-2.77-.96-.81-2.27-1.21-3.9-1.21-1.52,0-2.79.4-3.8,1.21-1.01.81-1.52,1.91-1.52,3.31,0,1.06.28,1.92.83,2.57s1.25,1.15,2.08,1.48,1.96.7,3.38,1.08c1.64.46,2.96.91,3.98,1.36,1.01.45,1.87,1.13,2.57,2.04s1.05,2.15,1.05,3.69c0,1.18-.32,2.3-.94,3.36-.63,1.06-1.56,1.92-2.79,2.57s-2.7.98-4.41.98-3.13-.29-4.39-.87Z"/>
      </g>
    </g>
  </g>
</svg>